<svg xmlns="http://www.w3.org/2000/svg" width="28" height="26" viewBox="0 0 28 26">
  <g id="Glyph" transform="translate(2 61)">
    <path id="Favorites" d="M28.684,12.077a1.134,1.134,0,0,1-1.082-.761l-2.52-7.555a1.149,1.149,0,0,0-2.163,0L20.4,11.316a1.134,1.134,0,0,1-1.082.761H11.135a1.109,1.109,0,0,0-1.077.746,1.084,1.084,0,0,0,.4,1.234l6.64,4.7a1.074,1.074,0,0,1,.409,1.219L14.98,27.563a1.09,1.09,0,0,0,.17.993,1.126,1.126,0,0,0,.917.444,1.146,1.146,0,0,0,.668-.218l6.593-4.666a1.171,1.171,0,0,1,1.346,0l6.593,4.666a1.146,1.146,0,0,0,.668.218,1.126,1.126,0,0,0,.917-.444,1.09,1.09,0,0,0,.17-.993L30.49,19.975a1.074,1.074,0,0,1,.409-1.219l6.64-4.7a1.084,1.084,0,0,0,.4-1.234,1.109,1.109,0,0,0-1.077-.746Z" transform="translate(-12 -64)" fill="#8e8e93" fill-rule="evenodd"/>
  </g>
</svg>
