<svg width="32" height="32" viewBox="0 0 32 32" fill="none" xmlns="http://www.w3.org/2000/svg">
<path d="M26 10H6C5.46973 10.0005 4.96133 10.2114 4.58637 10.5864C4.21141 10.9613 4.00053 11.4697 4 12V26C4.00053 26.5303 4.21141 27.0387 4.58637 27.4136C4.96133 27.7886 5.46973 27.9995 6 28H26C26.5303 27.9995 27.0387 27.7886 27.4136 27.4136C27.7886 27.0387 27.9995 26.5303 28 26V12C27.9995 11.4697 27.7886 10.9613 27.4136 10.5864C27.0387 10.2114 26.5303 10.0005 26 10V10ZM13 23V15L20 19L13 23ZM6 6H26V8H6V6ZM8 2H24V4H8V2Z" fill="black"/>
</svg>
